<svg aria-hidden="true" style="position: absolute; width: 0; height: 0; overflow: hidden;" version="1.1" xmlns="http://www.w3.org/2000/svg" xmlns:xlink="http://www.w3.org/1999/xlink">
<defs>
<symbol  id="icon-name" viewBox="0 0 33 32">
<path  stroke-linejoin="round" stroke-linecap="round" stroke-miterlimit="4" stroke-width="2.7826" d="M27.826 27.13c0-1.942 0-2.912-0.24-3.702-0.54-1.779-1.932-3.171-3.71-3.71-0.79-0.24-1.761-0.24-3.702-0.24h-6.957c-1.942 0-2.912 0-3.702 0.24-1.779 0.54-3.171 1.932-3.71 3.71-0.24 0.79-0.24 1.761-0.24 3.702M22.957 8.348c0 3.458-2.803 6.261-6.261 6.261s-6.261-2.803-6.261-6.261c0-3.458 2.803-6.261 6.261-6.261s6.261 2.803 6.261 6.261z"></path>
</symbol>
<symbol id="icon-password" viewBox="0 0 30 32">
<path  stroke-linejoin="round" stroke-linecap="round" stroke-miterlimit="4" stroke-width="3.0476" d="M22.857 14.476v-4.571c0-4.208-3.411-7.619-7.619-7.619s-7.619 3.411-7.619 7.619v4.571M8.838 29.714h12.8c2.56 0 3.84 0 4.818-0.498 0.86-0.438 1.559-1.138 1.998-1.998 0.498-0.978 0.498-2.258 0.498-4.818v-0.61c0-2.56 0-3.84-0.498-4.818-0.438-0.86-1.138-1.559-1.998-1.998-0.978-0.498-2.258-0.498-4.818-0.498h-12.8c-2.56 0-3.84 0-4.818 0.498-0.86 0.438-1.559 1.138-1.998 1.998-0.498 0.978-0.498 2.258-0.498 4.818v0.61c0 2.56 0 3.84 0.498 4.818 0.438 0.86 1.138 1.559 1.998 1.998 0.978 0.498 2.258 0.498 4.818 0.498z"></path>
</symbol>
<symbol id="icon-email" viewBox="0 0 37 32">
<path  stroke-linejoin="round" stroke-linecap="round" stroke-miterlimit="4" stroke-width="3.3684" d="M1.684 7.579l13.751 9.626c1.114 0.78 1.67 1.169 2.276 1.32 0.535 0.133 1.094 0.133 1.629 0 0.606-0.151 1.162-0.541 2.276-1.32l13.751-9.626M9.768 29.474h17.516c2.83 0 4.245 0 5.325-0.551 0.951-0.484 1.724-1.257 2.208-2.208 0.551-1.081 0.551-2.496 0.551-5.325v-10.779c0-2.83 0-4.245-0.551-5.325-0.484-0.951-1.257-1.724-2.208-2.208-1.081-0.551-2.496-0.551-5.325-0.551h-17.516c-2.83 0-4.245 0-5.325 0.551-0.951 0.484-1.724 1.257-2.208 2.208-0.551 1.081-0.551 2.496-0.551 5.325v10.779c0 2.83 0 4.245 0.551 5.325 0.484 0.951 1.257 1.724 2.208 2.208 1.081 0.551 2.496 0.551 5.325 0.551z"></path>
</symbol>
</defs>
</svg>
